HIERARCHY
ROOT Hips
{
	OFFSET 0.000000 0.000000 0.000000
	CHANNELS 6 Xposition Yposition Zposition Zrotation Yrotation Xrotation 
	JOINT LowerBack
	{
		OFFSET 0.000000 0.000000 0.000000
		CHANNELS 3 Zrotation Yrotation Xrotation
		JOINT Spine
		{
			OFFSET 0.028270 2.035590 -0.193380
			CHANNELS 3 Zrotation Yrotation Xrotation
			JOINT Spine1
			{
				OFFSET 0.056720 2.048850 -0.042750
				CHANNELS 3 Zrotation Yrotation Xrotation
				JOINT Neck
				{
					OFFSET 0.000000 0.000000 0.000000
					CHANNELS 3 Zrotation Yrotation Xrotation
					JOINT Neck1
					{
						OFFSET -0.054170 1.746240 0.172020
						CHANNELS 3 Zrotation Yrotation Xrotation
						JOINT Head
						{
							OFFSET 0.104070 1.761360 -0.123970
							CHANNELS 3 Zrotation Yrotation Xrotation
							End Site
							{
								OFFSET 0.000000 0.000000 0.000000
							}
						}
					}
				}
				JOINT LeftShoulder
				{
					OFFSET 0.000000 0.000000 0.000000
					CHANNELS 3 Zrotation Yrotation Xrotation
					JOINT LeftArm
					{
						OFFSET 3.362410 1.200890 -0.311210
						CHANNELS 3 Zrotation Yrotation Xrotation
						JOINT LeftForeArm
						{
							OFFSET 4.983000 -0.000000 -0.000000
							CHANNELS 3 Zrotation Yrotation Xrotation
							JOINT LeftHand
							{
								OFFSET 3.483560 -0.000000 -0.000000
								CHANNELS 3 Zrotation Yrotation Xrotation
								JOINT LeftFingerBase
								{
									OFFSET 0.000000 0.000000 0.000000
									CHANNELS 3 Zrotation Yrotation Xrotation
									JOINT LeftHandIndex1
									{
										OFFSET 0.715260 -0.000000 -0.000000
										CHANNELS 3 Zrotation Yrotation Xrotation
										End Site
										{
											OFFSET 0.000000 0.000000 0.000000
										}
									}
								}
								JOINT LThumb
								{
									OFFSET 0.000000 0.000000 0.000000
									CHANNELS 3 Zrotation Yrotation Xrotation
									End Site
									{
										OFFSET 0.000000 0.000000 0.000000
									}
								}
							}
						}
					}
				}
				JOINT RightShoulder
				{
					OFFSET 0.000000 0.000000 0.000000
					CHANNELS 3 Zrotation Yrotation Xrotation
					JOINT RightArm
					{
						OFFSET -3.136600 1.374050 -0.404650
						CHANNELS 3 Zrotation Yrotation Xrotation
						JOINT RightForeArm
						{
							OFFSET -5.241900 -0.000000 -0.000000
							CHANNELS 3 Zrotation Yrotation Xrotation
							JOINT RightHand
							{
								OFFSET -3.444170 -0.000000 -0.000000
								CHANNELS 3 Zrotation Yrotation Xrotation
								JOINT RightFingerBase
								{
									OFFSET 0.000000 0.000000 0.000000
									CHANNELS 3 Zrotation Yrotation Xrotation
									JOINT RightHandIndex1
									{
										OFFSET -0.622530 -0.000000 -0.000000
										CHANNELS 3 Zrotation Yrotation Xrotation
										End Site
										{
											OFFSET 0.000000 0.000000 0.000000
										}
									}
								}
								JOINT RThumb
								{
									OFFSET 0.000000 0.000000 0.000000
									CHANNELS 3 Zrotation Yrotation Xrotation
									End Site
									{
										OFFSET 0.000000 0.000000 0.000000
									}
								}
							}
						}
					}
				}
			}
		}
	}
}
}
MOTION
Frames: 11
Frame Time: 0.008333
-3.645523 16.952218 -0.044106 3.129349 72.305685 5.384327 -2.529711 0.466916 -3.574342 -1.109597 0.484921 -3.008677 -5.515118 0.416278 2.303108 9.008380 -10.341770 -7.963889 -2.079592 -0.161883 -0.062463 0.000000 0.000000 0.000000 -7.694750 25.263590 0.712184 -77.644737 25.517449 6.017055 -3.414024 -21.610675 -0.014221 -4.558394 5.237779 -0.212273 -0.037576 -0.129484 -0.000000 0.000000 0.000000 0.000000 0.000000 0.000000 0.000000 10.612350 -4.931837 -1.255688 55.411555 13.497828 9.230739 1.676599 49.749620 0.007047 -0.314550 6.133850 -0.019908 0.060361 -0.179173 -0.000000 0.000000 0.000000 0.000000 0.000000 0.000000 0.000000 
-3.503097 16.959991 -0.030554 3.197329 71.512928 5.370699 -2.606154 0.425797 -3.542273 -1.131099 0.451450 -3.012362 -5.548210 0.383900 2.277048 9.075334 -10.376144 -7.915807 -2.109963 -0.164896 -0.049580 0.000000 0.000000 0.000000 -7.596819 25.051748 0.670570 -77.202177 25.191231 6.526424 -3.408161 -21.781513 -0.013736 -4.420869 4.972835 -0.195559 -0.039095 -0.128033 -0.000000 0.000000 0.000000 0.000000 0.000000 0.000000 0.000000 10.783234 -4.987857 -1.263358 55.923951 13.207859 9.496408 1.710921 49.500700 0.007358 -0.273938 6.159919 -0.017696 0.061492 -0.176502 -0.000000 0.000000 0.000000 0.000000 0.000000 0.000000 0.000000 
-3.361539 16.969002 -0.015955 3.309078 70.701211 5.384205 -2.695368 0.379673 -3.498134 -1.154748 0.414586 -3.014606 -5.581491 0.348295 2.250339 9.136951 -10.403441 -7.865404 -2.141940 -0.168042 -0.036228 0.000000 0.000000 0.000000 -7.488557 24.819275 0.632057 -76.725839 24.809530 6.999441 -3.407253 -21.874282 -0.013305 -4.281941 4.752478 -0.181045 -0.040922 -0.126694 -0.000000 0.000000 0.000000 0.000000 0.000000 0.000000 0.000000 10.950605 -5.039782 -1.272284 56.499239 12.888318 9.704399 1.749631 49.175092 0.007661 -0.240811 6.179882 -0.015983 0.062838 -0.173638 -0.000000 0.000000 0.000000 0.000000 0.000000 0.000000 0.000000 
-3.221137 16.979069 -0.000439 3.449172 69.869995 5.413671 -2.792173 0.329686 -3.443819 -1.179365 0.374946 -3.015917 -5.614124 0.310045 2.221941 9.189330 -10.431042 -7.813467 -2.175103 -0.171286 -0.022542 0.000000 0.000000 0.000000 -7.376965 24.554132 0.596527 -76.220249 24.386217 7.408891 -3.411963 -21.899219 -0.012945 -4.144501 4.585279 -0.169033 -0.043046 -0.125495 -0.000000 0.000000 0.000000 0.000000 0.000000 0.000000 0.000000 11.110229 -5.095811 -1.280855 57.133655 12.548344 9.859652 1.792928 48.770472 0.007954 -0.217020 6.191440 -0.014772 0.064446 -0.170579 -0.000000 0.000000 0.000000 0.000000 0.000000 0.000000 0.000000 
-3.082118 16.989917 0.015809 3.608072 69.018583 5.453885 -2.893472 0.276849 -3.381661 -1.204259 0.333155 -3.016652 -5.645467 0.269732 2.192157 9.229967 -10.457464 -7.760814 -2.209245 -0.174605 -0.008720 0.000000 0.000000 0.000000 -7.259802 24.257011 0.565075 -75.691683 23.922976 7.744328 -3.422670 -21.854062 -0.012653 -4.007866 4.473462 -0.159419 -0.045486 -0.124413 -0.000000 0.000000 0.000000 0.000000 0.000000 0.000000 0.000000 11.258858 -5.154019 -1.288765 57.820916 12.185757 9.957803 1.840172 48.294871 0.008234 -0.199639 6.190188 -0.013860 0.066242 -0.167329 -0.000000 0.000000 0.000000 0.000000 0.000000 0.000000 0.000000 
-2.944772 17.001189 0.032671 3.784768 68.145889 5.508231 -2.999256 0.221773 -3.314239 -1.229375 0.289669 -3.017035 -5.674983 0.227763 2.162108 9.258290 -10.481362 -7.709018 -2.244206 -0.177969 0.004822 0.000000 0.000000 0.000000 -7.131898 23.933422 0.538812 -75.146574 23.417905 8.002131 -3.439621 -21.735090 -0.012433 -3.870357 4.415770 -0.151807 -0.048261 -0.123403 -0.000000 0.000000 0.000000 0.000000 0.000000 0.000000 0.000000 11.396075 -5.212417 -1.295927 58.552306 11.799086 9.996938 1.890460 47.759606 0.008493 -0.185657 6.173211 -0.013148 0.068139 -0.163907 -0.000000 0.000000 0.000000 0.000000 0.000000 0.000000 0.000000 
-2.809326 17.012572 0.050017 3.974259 67.250258 5.576776 -3.107839 0.165269 -3.244810 -1.254345 0.244987 -3.017578 -5.702232 0.184573 2.131941 9.273897 -10.504415 -7.659091 -2.279839 -0.181360 0.017859 0.000000 0.000000 0.000000 -6.992744 23.582120 0.517899 -74.590511 22.878944 8.172677 -3.462856 -21.548710 -0.012276 -3.729780 4.408545 -0.145794 -0.051375 -0.122424 -0.000000 0.000000 0.000000 0.000000 0.000000 0.000000 0.000000 11.521955 -5.272697 -1.301364 59.317746 11.393035 9.982244 1.943259 47.171896 0.008728 -0.173809 6.139487 -0.012538 0.070096 -0.160331 -0.000000 0.000000 0.000000 0.000000 0.000000 0.000000 0.000000 
-2.676035 17.023663 0.067771 4.175054 66.329808 5.663104 -3.219448 0.107758 -3.176760 -1.279226 0.199364 -3.018668 -5.727047 0.140359 2.102345 9.277809 -10.526794 -7.612208 -2.316061 -0.184761 0.030100 0.000000 0.000000 0.000000 -6.840005 23.206783 0.502459 -74.027530 22.311474 8.254969 -3.492142 -21.300810 -0.012177 -3.582834 4.445144 -0.140882 -0.054829 -0.121422 -0.000000 0.000000 0.000000 0.000000 0.000000 0.000000 0.000000 11.638250 -5.334831 -1.304550 60.107023 10.971023 9.918898 1.997887 46.540621 0.008935 -0.162650 6.089886 -0.011928 0.072063 -0.156632 -0.000000 0.000000 0.000000 0.000000 0.000000 0.000000 0.000000 
-2.545147 17.034162 0.085906 4.387941 65.382409 5.772036 -3.336155 0.049307 -3.112904 -1.304496 0.152878 -3.020247 -5.749469 0.095168 2.075265 9.272818 -10.547972 -7.570356 -2.352715 -0.188137 0.041002 0.000000 0.000000 0.000000 -6.668324 22.819381 0.492659 -73.460960 21.712379 8.262682 -3.526809 -20.993131 -0.012122 -3.425215 4.516832 -0.136570 -0.058614 -0.120329 -0.000000 0.000000 0.000000 0.000000 0.000000 0.000000 0.000000 11.748710 -5.397779 -1.305613 60.909689 10.537430 9.812613 2.053529 45.875173 0.009116 -0.149950 6.026270 -0.011222 0.073967 -0.152846 -0.000000 0.000000 0.000000 0.000000 0.000000 0.000000 0.000000 
-2.416940 17.043798 0.104426 4.607936 64.405216 5.901512 -3.456996 -0.009902 -3.055400 -1.330038 0.105525 -3.022854 -5.769856 0.048938 2.049204 9.260428 -10.568497 -7.532648 -2.389876 -0.191511 0.050856 0.000000 0.000000 0.000000 -6.482004 22.413430 0.487571 -72.891311 21.102494 8.188227 -3.566378 -20.648118 -0.012103 -3.255784 4.616526 -0.132257 -0.062693 -0.119130 -0.000000 0.000000 0.000000 0.000000 0.000000 0.000000 0.000000 11.855186 -5.462614 -1.303305 61.717936 10.098152 9.672477 2.110062 45.178567 0.009274 -0.135909 5.953699 -0.010414 0.075808 -0.149017 -0.000000 0.000000 0.000000 0.000000 0.000000 0.000000 0.000000 
-2.291662 17.052365 0.123329 4.831459 63.396305 6.049045 -3.582501 -0.070046 -3.004723 -1.356095 0.057139 -3.026044 -5.788748 0.001533 2.025505 9.243790 -10.586823 -7.500112 -2.427376 -0.194856 0.059356 0.000000 0.000000 0.000000 -6.279138 22.001214 0.486806 -72.316980 20.481999 8.054674 -3.609698 -20.274788 -0.012115 -3.072900 4.735861 -0.127545 -0.067020 -0.117791 -0.000000 0.000000 0.000000 0.000000 0.000000 0.000000 0.000000 11.961108 -5.527399 -1.298046 62.524907 9.656998 9.503162 2.167024 44.455835 0.009412 -0.118683 5.877232 -0.009410 0.077537 -0.145184 -0.000000 0.000000 0.000000 0.000000 0.000000 0.000000 0.000000 
